<svg xmlns="http://www.w3.org/2000/svg" width="800" height="240" viewBox="0 0 800 240" role="img" aria-label="BIFlowQ logo">
  <rect width="100%" height="100%" fill="none"/>
  <!-- Icône (flux + cerveau stylisé) -->
  <g transform="translate(40,20)">
    <rect x="0" y="0" width="200" height="200" rx="34" fill="#0B5FFF"/>
    <g transform="translate(36,36)" fill="#FFFFFF">
      <path d="M40 0c-22 0-40 18-40 40s18 40 40 40c8 0 16-2.6 22-7l30 30 10-10-30-30c4.4-6 7-13.4 7-21 0-22-18-40-40-40z"/>
      <circle cx="28" cy="28" r="4"/>
      <circle cx="52" cy="28" r="4"/>
      <circle cx="40" cy="44" r="4"/>
    </g>
  </g>

  <!-- Texte -->
  <g transform="translate(280,110)">
    <text x="0" y="-10" font-family="Inter, Arial, sans-serif" font-size="48" font-weight="700" fill="#0B173F">BIFlowQ</text>
    <text x="0" y="36" font-family="Inter, Arial, sans-serif" font-size="18" fill="#4B5563">Prototype d'orchestration d'agents — BesmaInfo</text>
  </g>
</svg>
